<?xml version="1.0" encoding="UTF-8" standalone="no"?>
<!-- Created with Inkscape (http://www.inkscape.org/) -->

<svg
   xmlns:dc="http://purl.org/dc/elements/1.1/"
   xmlns:cc="http://creativecommons.org/ns#"
   xmlns:rdf="http://www.w3.org/1999/02/22-rdf-syntax-ns#"
   xmlns:svg="http://www.w3.org/2000/svg"
   xmlns="http://www.w3.org/2000/svg"
   xmlns:sodipodi="http://sodipodi.sourceforge.net/DTD/sodipodi-0.dtd"
   xmlns:inkscape="http://www.inkscape.org/namespaces/inkscape"
   width="815.92938"
   height="500.28134"
   id="svg2"
   version="1.1"
   inkscape:version="0.48.4 r9939"
   sodipodi:docname="Nordeuropa.svg">
  <defs
     id="defs4" />
  <sodipodi:namedview
     id="base"
     pagecolor="#ffffff"
     bordercolor="#666666"
     borderopacity="1.0"
     inkscape:pageopacity="0.0"
     inkscape:pageshadow="2"
     inkscape:zoom="0.36677883"
     inkscape:cx="786.39814"
     inkscape:cy="254.31762"
     inkscape:document-units="px"
     inkscape:current-layer="layer2"
     showgrid="false"
     inkscape:window-width="1366"
     inkscape:window-height="706"
     inkscape:window-x="-8"
     inkscape:window-y="-8"
     inkscape:window-maximized="1"
     fit-margin-top="0"
     fit-margin-left="0"
     fit-margin-right="0"
     fit-margin-bottom="0" />
  <metadata
     id="metadata7">
    <rdf:RDF>
      <cc:Work
         rdf:about="">
        <dc:format>image/svg+xml</dc:format>
        <dc:type
           rdf:resource="http://purl.org/dc/dcmitype/StillImage" />
        <dc:title></dc:title>
      </cc:Work>
    </rdf:RDF>
  </metadata>
  <g
     inkscape:groupmode="layer"
     id="layer2"
     inkscape:label="Bild"
     transform="translate(1095.375,-19.71875)">
    <g
       id="g3023">
      
      
      <path
         inkscape:connector-curvature="0"
         id="path3001"
         d="m -552.85714,486.6479 c 0,0 -5.71429,1.42857 -7.14286,4.28571 -1.42857,2.85714 1.42857,4.28572 4.28571,8.57143 2.85715,4.28571 5.71429,-1.42857 7.14286,-1.42857 1.42857,0 -4.28571,-11.42857 -4.28571,-11.42857 z"
         style="fill:none;stroke:#000000;stroke-width:1px;stroke-linecap:butt;stroke-linejoin:miter;stroke-opacity:1" />
      <path
         inkscape:connector-curvature="0"
         id="path3003"
         d="m -487.14286,426.6479 12.85715,-14.28572 c 0,0 -2.85715,-10 -2.85715,-12.85714 0,-2.85714 8.57143,-5.71429 8.57143,-8.57143 0,-2.85714 -14.28571,0 -18.57143,7.14286 -4.28571,7.14286 -5.71428,12.85714 -5.71428,12.85714 z"
         style="fill:none;stroke:#000000;stroke-width:1px;stroke-linecap:butt;stroke-linejoin:miter;stroke-opacity:1" />
      <path
         inkscape:connector-curvature="0"
         id="path3005"
         d="m -660,475.21933 c 0,0 14.28571,1.42857 11.42857,12.85714 -2.85714,11.42857 -4.28571,10 -4.28571,10 l -10,-4.28572 c 0,0 -5.71429,-5.71428 -5.71429,-10 0,-4.28571 8.57143,-8.57142 8.57143,-8.57142 z"
         style="fill:none;stroke:#000000;stroke-width:1px;stroke-linecap:butt;stroke-linejoin:miter;stroke-opacity:1" />
      <path
         inkscape:connector-curvature="0"
         id="path3007"
         d="m -634.28571,425.21933 1.42857,-7.14286 -10,0 z"
         style="fill:none;stroke:#000000;stroke-width:1px;stroke-linecap:butt;stroke-linejoin:miter;stroke-opacity:1" />
      <path
         inkscape:connector-curvature="0"
         id="path3009"
         d="m -627.14286,465.21933 c 0,0 5.71429,5.71428 5.71429,7.14285 0,1.42857 -4.28572,-11.42857 4.28571,-11.42857 8.57143,0 7.14286,1.42857 8.57143,7.14286 1.42857,5.71428 2.85714,11.42857 2.85714,11.42857 l -8.57142,-1.42857 0,7.14286 8.57142,1.42857 c 0,0 -5.71428,-2.85715 -8.57142,2.85714 -2.85715,5.71429 -2.85715,8.57143 -2.85715,8.57143 0,0 -17.14285,-8.57143 -10,-8.57143 7.14286,0 -10,0 -10,0 0,0 -5.71428,-14.28571 -5.71428,-17.14286 0,-2.85714 15.71428,-7.14285 15.71428,-7.14285 z"
         style="fill:none;stroke:#000000;stroke-width:1px;stroke-linecap:butt;stroke-linejoin:miter;stroke-opacity:1" />
      <path
         inkscape:connector-curvature="0"
         id="path3011"
         d="m -632.85714,499.50504 c -1.42857,0 7.14285,1.42857 7.14285,1.42857 l 8.57143,1.42857 -1.42857,5.71429 -7.14286,0 -4.28571,4.28571 c 0,0 -10,-5.71428 -12.85714,-5.71428 -2.85715,0 -4.28572,-4.28572 0,-8.57143 4.28571,-4.28572 10,1.42857 10,1.42857 z"
         style="fill:none;stroke:#000000;stroke-width:1px;stroke-linecap:butt;stroke-linejoin:miter;stroke-opacity:1" />
      <path
         sodipodi:nodetypes="cccscsscc"
         inkscape:connector-curvature="0"
         id="path3013"
         d="m -450,313.79075 -7.14286,10 -8.57143,2.85715 c 0,0 3.27104,-2.67976 -2.14286,-5 -5,-2.14286 -4.99999,2.14285 -4.99999,2.14285 0,0 -1.42857,-5.71428 0,-10 1.42857,-4.28571 2.85714,-8.57142 7.14285,-7.14285 4.28572,1.42857 1.42858,2.85714 1.42858,2.85714 z"
         style="fill:none;stroke:#000000;stroke-width:1px;stroke-linecap:butt;stroke-linejoin:miter;stroke-opacity:1" />
      <path
         inkscape:connector-curvature="0"
         id="path3015"
         d="m -398.57143,353.79075 c 0,0 -5.71428,-8.57142 -10,-8.57142 -4.28571,0 -12.85714,10 -12.85714,10 l 2.85714,1.42857 c 0,0 2.85714,4.28571 10,4.28571 7.14286,0 10,-7.14286 10,-7.14286 z"
         style="fill:none;stroke:#000000;stroke-width:1px;stroke-linecap:butt;stroke-linejoin:miter;stroke-opacity:1" />
      <path
         inkscape:connector-curvature="0"
         id="path3017"
         d="m -392.85714,365.21933 -20,0 -5.71429,8.57142 c 0,0 4.28572,10 10,10 5.71429,0 15.71429,-18.57142 15.71429,-18.57142 z"
         style="fill:none;stroke:#000000;stroke-width:1px;stroke-linecap:butt;stroke-linejoin:miter;stroke-opacity:1" />
      
    </g>
  </g>
  <g
     inkscape:label="Ebene 1"
     inkscape:groupmode="layer"
     id="layer1"
     transform="translate(1095.375,-19.71875)" />
</svg>
