<?xml version="1.0" encoding="UTF-8" standalone="no"?>
<!-- Created with Inkscape (http://www.inkscape.org/) -->

<svg
   xmlns:dc="http://purl.org/dc/elements/1.1/"
   xmlns:cc="http://creativecommons.org/ns#"
   xmlns:rdf="http://www.w3.org/1999/02/22-rdf-syntax-ns#"
   xmlns:svg="http://www.w3.org/2000/svg"
   xmlns="http://www.w3.org/2000/svg"
   xmlns:sodipodi="http://sodipodi.sourceforge.net/DTD/sodipodi-0.dtd"
   xmlns:inkscape="http://www.inkscape.org/namespaces/inkscape"
   width="815.92938"
   height="500.28134"
   id="svg2"
   version="1.1"
   inkscape:version="0.48.4 r9939"
   sodipodi:docname="Nordeuropa.svg">
  <defs
     id="defs4" />
  <sodipodi:namedview
     id="base"
     pagecolor="#ffffff"
     bordercolor="#666666"
     borderopacity="1.0"
     inkscape:pageopacity="0.0"
     inkscape:pageshadow="2"
     inkscape:zoom="0.36677883"
     inkscape:cx="786.39814"
     inkscape:cy="254.31762"
     inkscape:document-units="px"
     inkscape:current-layer="layer2"
     showgrid="false"
     inkscape:window-width="1366"
     inkscape:window-height="706"
     inkscape:window-x="-8"
     inkscape:window-y="-8"
     inkscape:window-maximized="1"
     fit-margin-top="0"
     fit-margin-left="0"
     fit-margin-right="0"
     fit-margin-bottom="0" />
  <metadata
     id="metadata7">
    <rdf:RDF>
      <cc:Work
         rdf:about="">
        <dc:format>image/svg+xml</dc:format>
        <dc:type
           rdf:resource="http://purl.org/dc/dcmitype/StillImage" />
        <dc:title></dc:title>
      </cc:Work>
    </rdf:RDF>
  </metadata>
  <g
     inkscape:groupmode="layer"
     id="layer2"
     inkscape:label="Bild"
     transform="translate(1095.375,-19.71875)">
    <g
       id="g3023">
      <path
         inkscape:connector-curvature="0"
         id="path2997"
         d="m -987.14286,155.21933 -10,11.42857 -17.14284,-1.42857 -7.1429,5.71428 -15.7143,0 c 0,0 -10,7.14286 -15.7142,5.71429 -5.7143,-1.42857 -15.7143,-5.71429 -15.7143,-5.71429 l -7.1429,-7.14286 -2.8571,-7.14285 -11.4286,-4.28572 -4.2857,-4.28571 11.4286,-1.42857 1.4285,-4.28572 4.2857,-8.57143 -7.1428,-4.28571 c 0,0 -10,-1.42857 -5.7143,-7.14286 4.2857,-5.71428 12.8571,2.85714 20,1.42857 7.1429,-1.42857 5.7143,-12.85714 8.5714,-10 2.8572,2.85715 -10,-2.85714 -10,-2.85714 l -8.5714,-5.71429 8.5714,0 2.8572,-1.42857 10,-8.571425 c 0,0 -2.8572,-7.142857 2.8571,0 5.7143,7.142855 1.4286,2.857143 5.7143,2.857143 4.2857,0 2.8571,-5.714286 2.8571,-5.714286 l 8.5715,-1.428571 1.4285,11.428569 c 0,0 -7.1428,11.42857 -5.7142,14.28572 1.4285,2.85714 2.8571,-4.28572 10,-8.57143 7.1428,-4.28572 2.8571,4.28571 7.1428,7.14285 4.2857,2.85715 5.7143,-10 11.4286,-10 5.7143,0 7.1428,11.42858 7.1428,11.42858 l 4.2858,-5.71429 2.8571,4.28571 c 0,0 1.42857,-4.28571 5.71429,-4.28571 4.28571,0 7.14285,1.42857 7.14285,1.42857 l 5.71429,0 c 0,0 -2.85714,-10 2.85714,-10 5.71429,0 0,8.57143 2.85714,11.42857 2.85715,2.85715 10,-1.42857 11.42858,0 1.42857,1.42857 -5.71429,0 -5.71429,11.42857 0,11.42858 4.28571,12.85715 4.28571,12.85715 l -5.71428,1.42857 c 0,0 4.28571,4.28571 1.42857,10 -2.85714,5.71429 -7.14286,1.42857 -7.14286,1.42857 z"
         style="fill:none;stroke:#000000;stroke-width:1px;stroke-linecap:butt;stroke-linejoin:miter;stroke-opacity:1" />
      <path
         sodipodi:nodetypes="cscscsccccscccsscsssc"
         inkscape:connector-curvature="0"
         id="path2999"
         d="m -645.71429,402.36218 c 0,0 -2.85714,7.14286 -5.71428,15.71429 -2.85714,8.57143 -1.42857,12.85714 -1.42857,12.85714 0,0 -5.71429,0 -2.85715,7.14286 2.85715,7.14286 10,4.28571 10,4.28571 0,0 4.28572,5.71429 1.42858,12.85715 -2.85715,7.14285 -12.85715,-2.85715 -12.85715,-2.85715 l 1.42857,8.57143 -17.14285,17.14286 -2.85715,12.85714 c 0,0 5.71429,-4.28571 5.71429,4.28572 0,8.57142 -5.71429,7.14285 -5.71429,7.14285 l -21.42857,-1.42857 0,-12.85714 c 0,0 -5.12549,-6.40461 -6.42856,-13.57143 -1.42858,-7.85714 4.28571,5 2.85713,-4.28572 -1.08613,-7.0598 -3.57143,-8.57142 -3.57143,-8.57142 0,0 10e-6,-26.42857 10.00001,-32.14286 10,-5.71429 8.57142,-2.85714 21.42857,-4.28571 12.85714,-1.42858 2.85714,-8.57143 10,-11.42858 7.14285,-2.85714 17.14285,-11.42857 17.14285,-11.42857 z"
         style="fill:none;stroke:#000000;stroke-width:1px;stroke-linecap:butt;stroke-linejoin:miter;stroke-opacity:1" />
      <path
         inkscape:connector-curvature="0"
         id="path3001"
         d="m -552.85714,486.6479 c 0,0 -5.71429,1.42857 -7.14286,4.28571 -1.42857,2.85714 1.42857,4.28572 4.28571,8.57143 2.85715,4.28571 5.71429,-1.42857 7.14286,-1.42857 1.42857,0 -4.28571,-11.42857 -4.28571,-11.42857 z"
         style="fill:none;stroke:#000000;stroke-width:1px;stroke-linecap:butt;stroke-linejoin:miter;stroke-opacity:1" />
      <path
         inkscape:connector-curvature="0"
         id="path3003"
         d="m -487.14286,426.6479 12.85715,-14.28572 c 0,0 -2.85715,-10 -2.85715,-12.85714 0,-2.85714 8.57143,-5.71429 8.57143,-8.57143 0,-2.85714 -14.28571,0 -18.57143,7.14286 -4.28571,7.14286 -5.71428,12.85714 -5.71428,12.85714 z"
         style="fill:none;stroke:#000000;stroke-width:1px;stroke-linecap:butt;stroke-linejoin:miter;stroke-opacity:1" />
      <path
         inkscape:connector-curvature="0"
         id="path3005"
         d="m -660,475.21933 c 0,0 14.28571,1.42857 11.42857,12.85714 -2.85714,11.42857 -4.28571,10 -4.28571,10 l -10,-4.28572 c 0,0 -5.71429,-5.71428 -5.71429,-10 0,-4.28571 8.57143,-8.57142 8.57143,-8.57142 z"
         style="fill:none;stroke:#000000;stroke-width:1px;stroke-linecap:butt;stroke-linejoin:miter;stroke-opacity:1" />
      <path
         inkscape:connector-curvature="0"
         id="path3007"
         d="m -634.28571,425.21933 1.42857,-7.14286 -10,0 z"
         style="fill:none;stroke:#000000;stroke-width:1px;stroke-linecap:butt;stroke-linejoin:miter;stroke-opacity:1" />
      <path
         inkscape:connector-curvature="0"
         id="path3009"
         d="m -627.14286,465.21933 c 0,0 5.71429,5.71428 5.71429,7.14285 0,1.42857 -4.28572,-11.42857 4.28571,-11.42857 8.57143,0 7.14286,1.42857 8.57143,7.14286 1.42857,5.71428 2.85714,11.42857 2.85714,11.42857 l -8.57142,-1.42857 0,7.14286 8.57142,1.42857 c 0,0 -5.71428,-2.85715 -8.57142,2.85714 -2.85715,5.71429 -2.85715,8.57143 -2.85715,8.57143 0,0 -17.14285,-8.57143 -10,-8.57143 7.14286,0 -10,0 -10,0 0,0 -5.71428,-14.28571 -5.71428,-17.14286 0,-2.85714 15.71428,-7.14285 15.71428,-7.14285 z"
         style="fill:none;stroke:#000000;stroke-width:1px;stroke-linecap:butt;stroke-linejoin:miter;stroke-opacity:1" />
      <path
         inkscape:connector-curvature="0"
         id="path3011"
         d="m -632.85714,499.50504 c -1.42857,0 7.14285,1.42857 7.14285,1.42857 l 8.57143,1.42857 -1.42857,5.71429 -7.14286,0 -4.28571,4.28571 c 0,0 -10,-5.71428 -12.85714,-5.71428 -2.85715,0 -4.28572,-4.28572 0,-8.57143 4.28571,-4.28572 10,1.42857 10,1.42857 z"
         style="fill:none;stroke:#000000;stroke-width:1px;stroke-linecap:butt;stroke-linejoin:miter;stroke-opacity:1" />
      <path
         sodipodi:nodetypes="cccscsscc"
         inkscape:connector-curvature="0"
         id="path3013"
         d="m -450,313.79075 -7.14286,10 -8.57143,2.85715 c 0,0 3.27104,-2.67976 -2.14286,-5 -5,-2.14286 -4.99999,2.14285 -4.99999,2.14285 0,0 -1.42857,-5.71428 0,-10 1.42857,-4.28571 2.85714,-8.57142 7.14285,-7.14285 4.28572,1.42857 1.42858,2.85714 1.42858,2.85714 z"
         style="fill:none;stroke:#000000;stroke-width:1px;stroke-linecap:butt;stroke-linejoin:miter;stroke-opacity:1" />
      <path
         inkscape:connector-curvature="0"
         id="path3015"
         d="m -398.57143,353.79075 c 0,0 -5.71428,-8.57142 -10,-8.57142 -4.28571,0 -12.85714,10 -12.85714,10 l 2.85714,1.42857 c 0,0 2.85714,4.28571 10,4.28571 7.14286,0 10,-7.14286 10,-7.14286 z"
         style="fill:none;stroke:#000000;stroke-width:1px;stroke-linecap:butt;stroke-linejoin:miter;stroke-opacity:1" />
      <path
         inkscape:connector-curvature="0"
         id="path3017"
         d="m -392.85714,365.21933 -20,0 -5.71429,8.57142 c 0,0 4.28572,10 10,10 5.71429,0 15.71429,-18.57142 15.71429,-18.57142 z"
         style="fill:none;stroke:#000000;stroke-width:1px;stroke-linecap:butt;stroke-linejoin:miter;stroke-opacity:1" />
      <path
         sodipodi:nodetypes="csccsccscscsccscscsssccssscsscscssccsccsccsccscsc"
         inkscape:connector-curvature="0"
         id="path3019"
         d="m -395.71429,345.21933 c 0,0 4.28572,21.42857 12.85715,24.28571 8.57143,2.85714 12.85714,0 12.85714,0 l 0,20 c 0,0 6.42857,17.14286 -2.14286,21.42858 C -380.71429,415.21933 -400,396.6479 -400,396.6479 l -1.42857,-5.71429 c 0,0 -15.71429,5.71429 -18.57143,12.85714 -2.85714,7.14286 -8.57143,27.14286 -8.57143,27.14286 0,0 2.85714,31.42857 4.28572,25.71429 1.42857,-5.71429 2.85714,24.28571 2.85714,24.28571 0,0 10,-1.42857 4.28571,-1.42857 -5.71428,0 11.42857,2.85714 11.42857,2.85714 l 8.57143,5.71429 c 0,0 5.71429,-4.28572 14.28572,-1.42857 8.57143,2.85714 2.85714,18.57143 2.85714,18.57143 0,0 0,-4.28572 12.85714,2.85714 12.85715,7.14286 11.42857,11.42857 11.42857,11.42857 0,0 25.71429,0 22.85715,-2.85714 -2.85715,-2.85715 7.14285,-15.71429 11.42857,-15.71429 4.28571,0 0.71428,5 6.42857,2.14285 5.71428,-2.85714 -0.71429,-7.85714 -0.71429,-7.85714 l -0.71428,-14.28571 c 0,0 5.71428,0 7.14286,-3.57143 1.42857,-3.57143 -1.42858,-5.71428 0.71428,-7.85714 2.14286,-2.14286 9.28572,1.42857 10,-5 0.71429,-6.42857 -6.42857,-2.14286 -6.42857,-2.14286 0,0 -2.85714,-13.57143 2.85714,-15.71428 5.71429,-2.14286 6.42857,-4.28572 12.85715,-2.14286 6.42857,2.14286 0.71428,-2.85714 0.71428,-2.85714 0,0 9.28572,-10.71429 8.57143,-13.57143 -0.71429,-2.85715 -10.71429,-22.85715 -10.71429,-22.85715 0,0 -5,-2.14285 -4.28571,-2.85714 0.71429,-0.71428 2.85714,5.71429 -1.42857,-7.14286 -4.28572,-12.85714 -9.28572,-5.71428 -9.28572,-5.71428 l -0.71428,-7.85714 c 0,0 2.14286,-11.42858 1.42857,-12.85715 -0.71429,-1.42857 -7.14286,-5.71428 -7.14286,-5.71428 l -0.71428,-6.42857 c 0,0 -7.14286,-4.28572 -5,-9.28572 2.14285,-5 3.57143,-6.42857 3.57143,-6.42857 l 1.42857,-7.14286 c 0,0 0.71428,0 2.14285,-6.42857 1.42858,-6.42857 -4.28571,-4.28571 -4.28571,-4.28571 l -11.42857,2.85714 c 0,0 -10,-2.14286 -17.85714,0.71429 -7.85715,2.85714 -13.57143,2.14285 -13.57143,2.14285 0,0 -12.14286,2.85715 -20.71429,7.85715 -8.57143,5 -17.14286,8.57143 -17.14286,8.57143 z"
         style="fill:none;stroke:#000000;stroke-width:1px;stroke-linecap:butt;stroke-linejoin:miter;stroke-opacity:1" />
      <path
         sodipodi:nodetypes="csscsssscsssscsssssccsssssscccsscsscsccscsssssssscsssssssssscscsccccsscccccccsccsccccssccccscscsssssssssssccsssssscscsscssssscsscssscssssssssssssssssssscc"
         inkscape:connector-curvature="0"
         id="path3021"
         d="m -552.14286,457.36218 c 0,0 22.14286,-0.71428 20.71429,-4.28571 -1.42857,-3.57143 8.57143,-22.85715 8.57143,-27.14286 0,-4.28571 -1.42857,-39.28571 -1.42857,-39.28571 0,0 3.57142,-10 14.28571,-16.42858 10.71429,-6.42857 11.42857,-12.14285 13.57143,-11.42857 2.14286,0.71429 20,-7.85714 18.57143,-15 -1.42857,-7.14285 -7.85715,-19.28571 -15.71429,-25.71428 C -501.42857,311.6479 -520,297.36218 -520,297.36218 c 0,0 -2.14286,-18.57143 0.71429,-24.28571 2.85714,-5.71429 -3.57143,-16.42857 0.71428,-17.85715 4.28572,-1.42857 2.14286,2.14286 6.42857,-2.85714 4.28572,-5 10,-22.14286 8.57143,-20.71428 -1.42857,1.42857 36.42857,-27.14286 36.42857,-27.14286 0,0 0.71429,-5.71429 2.14286,-7.85714 1.42857,-2.14286 6.42857,-5 2.85714,-7.14286 -3.57143,-2.14286 -7.85714,-4.28572 -7.14285,-7.14286 0.71428,-2.85714 2.85714,-1.42857 4.28571,-5 1.42857,-3.57143 -4.28571,-4.28571 -3.57143,-9.28571 0.71429,-5 7.14286,-2.85715 7.14286,-2.85715 l -0.71429,-5.71428 c 0,0 2.14286,2.85714 5,0 2.85715,-2.85714 2.14286,-5 6.42857,-7.14286 4.28572,-2.14286 9.28572,1.42857 12.85715,1.42857 3.57143,0 12.14285,-4.28571 15,-2.85714 2.85714,1.42857 10.71428,5.71429 12.85714,8.57143 2.14286,2.85714 6.42857,9.28571 2.14286,13.57143 -4.28572,4.28571 -7.85715,2.85714 -7.85715,2.85714 l -5.71428,16.42857 -5.71429,7.14286 c 0,0 -9.28571,7.14286 -10.71428,11.42857 -1.42857,4.28571 -12.85715,15 -8.57143,15 4.28571,0 -6.42857,-0.71429 -6.42857,-0.71429 0,0 -7.85715,11.42858 -5.71429,17.85715 2.14286,6.42857 8.57143,11.42857 8.57143,15 0,3.57143 -1.42857,8.57143 -1.42857,8.57143 0,0 5.71428,4.28571 6.42857,7.85714 0.71429,3.57143 -0.71429,7.85714 -0.71429,7.85714 l -0.71428,19.28572 c 0,0 -2.14286,-0.71429 2.14286,3.57142 4.28571,4.28572 10,2.14286 10,2.14286 0,0 10,0 12.14285,3.57143 2.14286,3.57143 0,11.42857 2.85715,12.85714 2.85714,1.42857 0,-1.42857 5.71428,-0.71428 5.71429,0.71428 3.57143,2.85714 7.14286,3.57143 3.57143,0.71428 6.42857,-5.71429 13.57143,-7.14286 7.14285,-1.42857 2.14285,1.42857 9.28571,-0.71429 7.14286,-2.14285 7.14286,-7.85714 7.85714,-8.57143 0.71429,-0.71428 -1.42857,0.71429 8.57143,-1.42857 10,-2.14285 8.57143,-3.57143 8.57143,-3.57143 0,0 2.14286,-3.57142 5,-3.57142 2.85714,0 24.28572,-5 26.42857,-6.42858 2.14286,-1.42857 39.28572,-67.14285 35.71429,-75.71428 -3.57143,-8.57143 -12.85714,-14.28572 -20,-17.14286 -7.14286,-2.85714 -13.57143,1.42857 -14.28572,-6.42857 -0.71428,-7.85714 7.14287,0 2.14287,-12.14286 -5,-12.14285 -2.85715,1.42857 -10.00001,-5.71428 -7.14286,-7.14286 1.42857,-0.71429 -4.28571,-10 -5.71429,-9.28572 -9.28572,-7.85715 -11.42857,-16.42857 -2.14286,-8.57143 5,-3.57143 1.42857,-13.57143 -3.57143,-10 -10.71429,-8.57143 -10.71429,-8.57143 0,0 -12.14286,-7.14286 -16.42857,-12.85714 -4.28571,-5.71429 3.57143,-7.14286 3.57143,-7.14286 0,0 4.28571,-10.714287 2.14286,-14.285716 -2.14286,-3.571428 -17.85715,-7.142857 -17.85715,-7.142857 l -7.85714,-5 -1.42857,-9.285714 -2.14286,-5.714286 c 0,0 3.57143,-5.714285 10.71429,-11.428571 7.14285,-5.714286 8.57143,-7.857143 7.85714,-10 -0.71429,-2.142857 -12.14286,0 -12.14286,0 l -6.42857,-2.142857 -4.28571,-2.857143 -4.28572,-2.857143 5,0.714286 5,3.571428 5.71429,-4.285714 c 0,0 5,-2.857143 4.28571,-3.571429 -0.71428,-0.714285 -4.28571,-3.571428 -4.28571,-3.571428 l -5,0 c 0,0 -13.57143,-3.571429 -9.28572,-4.285714 4.28572,-0.714286 -10,5.714285 -10,5.714285 l -3.57142,-11.428571 -15,0 2.14285,10 c 0,0 -0.71428,3.571428 -4.28571,3.571428 -3.57143,0 -2.85714,-10 -6.42857,-10 -3.57143,0 -5,15.714286 -5,15.714286 l -5,-0.714286 0.71428,-10 4.28572,-5 c 0,0 0.71428,-5 -3.57143,-5 -4.28572,0 -5,6.428572 -5,6.428572 0,0 -4.28572,-2.142857 -7.14286,0 -2.85714,2.142857 -2.14286,7.857143 -2.14286,7.857143 0,0 -6.42857,-1.428572 -8.57142,-0.714286 -2.14286,0.714286 1.42857,7.142857 -5.71429,10 -7.14286,2.857143 -6.42857,-3.571429 -9.28571,-4.285714 -2.85715,-0.714286 0.71428,2.857143 -5,8.571428 -5.71429,5.714286 -6.42858,-3.571428 -10,0 -3.57143,3.571429 0,7.857143 -2.85715,9.285715 C -510,58.790753 -510,49.505039 -516.42857,48.790753 c -6.42857,-0.714286 -6.42857,8.571429 -11.42857,13.571429 -5,5 -14.28572,0.714285 -15,2.857142 -0.71429,2.142858 -2.85715,2.142858 -2.85715,7.142858 0,5 7.85715,2.142857 7.85715,7.142857 0,5 -16.42857,17.142857 -16.42857,17.142857 l -8.57143,5.714284 c 0,0 -3.57143,3.57143 -4.28572,5.71429 -0.71428,2.14285 0.71429,5 0.71429,7.14285 0,2.14286 -12.14286,10.71429 -15,14.28572 -2.85714,3.57143 -0.71429,7.14286 -3.57143,11.42857 -2.85714,4.28571 -6.42857,0.71429 -8.57143,5 -2.14286,4.28571 -0.71428,5 -2.85714,12.14286 -2.14286,7.14285 -9.28572,10.71428 -9.28572,10.71428 0,0 1.42858,1.42857 -1.42857,7.85715 -2.85714,6.42857 -10.71428,7.85714 -10.71428,7.85714 0,0 0.71428,4.28571 -0.71429,6.42857 -1.42857,2.14286 -3.57143,-1.42857 -7.14286,1.42857 -3.57142,2.85714 -10.71428,10 -10.71428,10 0,0 -7.85714,2.14286 -8.57143,5 -0.71429,2.85714 -1.42857,10 -5.71429,13.57143 -4.28571,3.57143 -12.14285,-0.71429 -14.28571,0.71429 -2.14286,1.42857 3.57143,2.85714 -12.85714,11.42857 -16.42858,8.57143 -17.85715,5.71428 -24.28572,10 -6.42857,4.28571 -20.71428,16.42857 -20.71428,16.42857 0,0 -12.85715,8.57143 -16.42858,21.42857 -3.57142,12.85714 -10,24.28571 -8.57142,37.14286 1.42857,12.85714 1.42857,22.85714 1.42857,22.85714 0,0 -2.14286,0 -2.14286,10 0,10 4.28571,8.57143 4.28571,14.28571 0,5.71429 8.57143,28.57143 30.71429,29.28572 22.14286,0.71428 32.14286,-11.42857 32.14286,-11.42857 0,0 7.85714,3.57143 9.28571,1.42857 1.42857,-2.14286 2.14286,-12.14286 10.71429,-17.14286 8.57143,-5 11.42857,-2.14286 14.28571,-8.57143 2.85715,-6.42857 5,-10.71428 5,-15 0,-4.28571 -2.14285,-10.71428 0.71429,-10.71428 2.85714,0 9.28571,-1.42857 7.14286,6.42857 -2.14286,7.85714 -6.42858,15 -5.71429,17.85714 0.71429,2.85714 7.85714,5.71429 8.57143,10.71429 0.71428,5 -3.57143,6.42857 -2.85714,12.85714 0.71428,6.42857 13.57142,23.57143 15.71428,31.42857 2.14286,7.85714 -1.42857,10.71429 2.14286,15 3.57143,4.28572 11.42857,5 14.28571,10.71429 2.85715,5.71428 5,12.14285 1.42857,16.42857 -3.57142,4.28571 -5,4.28571 -2.85714,9.28571 2.14286,5 5,3.57143 5,9.28572 0,5.71428 -3.57143,7.14285 0,10.71428 3.57143,3.57143 23.57143,1.42857 26.42857,-1.42857 2.85715,-2.85714 6.42857,-7.14286 2.85715,-8.57143 -3.57143,-1.42857 -4.28572,-3.57143 -3.57143,-5.71428 0.71428,-2.14286 13.57143,-9.28572 13.57143,-9.28572 z"
         style="fill:none;stroke:#000000;stroke-width:1px;stroke-linecap:butt;stroke-linejoin:miter;stroke-opacity:1" />
    </g>
  </g>
  <g
     inkscape:label="Ebene 1"
     inkscape:groupmode="layer"
     id="layer1"
     transform="translate(1095.375,-19.71875)" />
</svg>
