<?xml version="1.0" encoding="UTF-8" standalone="no"?>
<!-- Created with Inkscape (http://www.inkscape.org/) -->

<svg
   xmlns:dc="http://purl.org/dc/elements/1.1/"
   xmlns:cc="http://creativecommons.org/ns#"
   xmlns:rdf="http://www.w3.org/1999/02/22-rdf-syntax-ns#"
   xmlns:svg="http://www.w3.org/2000/svg"
   xmlns="http://www.w3.org/2000/svg"
   xmlns:sodipodi="http://sodipodi.sourceforge.net/DTD/sodipodi-0.dtd"
   xmlns:inkscape="http://www.inkscape.org/namespaces/inkscape"
   width="953.25464"
   height="880.31195"
   id="svg2"
   version="1.1"
   inkscape:version="0.48.4 r9939"
   sodipodi:docname="Zeichnung.svg">
  <defs
     id="defs4" />
  <sodipodi:namedview
     id="base"
     pagecolor="#ffffff"
     bordercolor="#666666"
     borderopacity="1.0"
     inkscape:pageopacity="0.0"
     inkscape:pageshadow="2"
     inkscape:zoom="0.54837591"
     inkscape:cx="566.51821"
     inkscape:cy="571.94776"
     inkscape:document-units="px"
     inkscape:current-layer="layer2"
     showgrid="false"
     inkscape:window-width="1366"
     inkscape:window-height="706"
     inkscape:window-x="-8"
     inkscape:window-y="-8"
     inkscape:window-maximized="1"
     fit-margin-top="0"
     fit-margin-left="0"
     fit-margin-right="0"
     fit-margin-bottom="0" />
  <metadata
     id="metadata7">
    <rdf:RDF>
      <cc:Work
         rdf:about="">
        <dc:format>image/svg+xml</dc:format>
        <dc:type
           rdf:resource="http://purl.org/dc/dcmitype/StillImage" />
        <dc:title></dc:title>
      </cc:Work>
    </rdf:RDF>
  </metadata>
  <g
     inkscape:label="Ebene 1"
     inkscape:groupmode="layer"
     id="layer1"
     style="display:inline"
     transform="translate(175.73883,7.8064484)" />
  <g
     inkscape:groupmode="layer"
     id="layer2"
     inkscape:label="Bild"
     style="display:inline"
     transform="translate(175.73883,7.8064484)">
    <path
       style="fill:none;stroke:#000000;stroke-width:5;stroke-linecap:butt;stroke-linejoin:miter;stroke-miterlimit:4;stroke-opacity:1;stroke-dasharray:none"
       d="m 324.59486,-5.3064484 1.82356,12.7649663 -5.4707,5.4707001 -5.4707,-3.6471335 -10.9414,-5.4706998 -3.64713,3.6471332 -12.76497,5.4707001 c 0,0 5.4707,-1.823567 0,10.941399 -5.4707,12.764967 -7.29426,20.059233 -7.29426,20.059233 0,0 10.9414,3.647133 7.29426,14.588533 -3.64713,10.941399 -25.52993,-3.647133 -25.52993,-3.647133 0,0 -18.23566,-5.4707 -10.9414,-10.9414 7.29427,-5.4707 7.29427,-18.235666 1.82357,-20.059233 -5.4707,-1.823566 -20.05923,1.823567 -20.05923,1.823567 0,0 -16.4121,0 -18.23567,3.647133 -1.82357,3.647133 21.8828,12.764966 21.8828,12.764966 0,0 -1.82357,5.4707 1.82357,12.764967 3.64713,7.294266 10.94139,3.647133 14.58853,5.470699 3.64713,1.823567 12.76496,9.117833 12.76496,9.117833 0,0 5.4707,12.764967 7.29427,12.764967 1.82357,0 -18.23567,-7.294267 -21.8828,-3.647134 -3.64713,3.647134 -10.9414,3.647134 -10.9414,3.647134 l -1.82356,18.235661 -9.11784,3.64714 1.82357,9.11783 7.29427,3.64713 7.29426,1.82357 0,12.76497 -12.76496,0 c 0,0 -10.9414,7.29426 -20.05924,-3.64714 -9.11783,-10.9414 -12.76496,3.64714 -10.9414,3.64714 1.82357,0 3.64714,7.29426 3.64714,7.29426 0,0 7.29426,7.29427 7.29426,5.4707 0,-1.82356 10.9414,-3.64713 10.9414,-3.64713 0,0 9.11784,7.29427 9.11784,10.9414 0,3.64713 -14.58854,5.4707 -14.58854,5.4707 l -20.05923,-7.29427 -12.76497,0 -20.05923,-18.23566 c 0,0 0,-1.82357 -3.64713,-16.4121 -3.64714,-14.58854 -25.52993,-10.9414 -25.52993,-10.9414 l -16.4121,-16.412101 12.76496,7.294266 9.11784,0 9.11783,0 18.23566,1.823567 9.11784,1.823566 9.11783,1.823562 10.9414,0 c 0,0 29.17707,-9.117828 27.3535,-23.706361 -1.82357,-14.588533 -16.4121,-23.706366 -16.4121,-23.706366 l -10.9414,1.823567 -60.1777,-18.235666 -3.64713,-5.4707 -7.29427,7.294266 -7.29426,-3.647133 -10.9414,0 -5.4707,5.4707 -16.412103,-9.117833 5.4707,-5.4707 -10.9414,-1.823567 -5.4707,9.117833 c 0,0 -34.647765,-1.823566 -20.059232,20.059233 14.161459,21.242187 1.823567,5.4707 1.823567,5.4707 l 5.470699,10.941399 c 0,0 14.588533,1.823567 18.235666,10.9414 3.647133,9.117833 -5.4707,18.235666 -5.4707,18.235666 l 25.529933,23.706362 c 0,0 -1.82357,1.82357 -1.82357,9.11784 0,7.29426 3.64714,7.29426 3.64714,7.29426 l 1.82356,7.29427 c 0,0 -5.4707,0 5.4707,7.29427 10.9414,7.29426 14.58854,12.76496 14.58854,12.76496 0,0 -10.9414,9.11784 1.82356,14.58854 12.76497,5.4707 25.52993,14.58853 25.52993,14.58853 0,0 7.29427,14.58853 3.64714,25.52993 -3.64714,10.9414 -32.8242,54.707 -32.8242,54.707 l 3.64713,-1.82357 9.11784,7.29427 1.82356,-5.4707 10.9414,9.11783 c 0,0 12.76497,-3.64713 12.76497,0 0,3.64714 -16.4121,10.9414 -16.4121,10.9414 l -10.9414,7.29427 -1.82357,25.52993 -3.64713,9.11783 10.9414,10.9414 1.82357,21.8828 c 0,0 -16.4121,-7.29426 5.4707,7.29427 21.88279,14.58853 20.05923,40.11846 20.05923,40.11846 l -14.58854,9.11784 -7.29426,7.29426 -3.64713,7.29427 10.94139,3.64713 -1.82356,5.4707 -7.29427,1.82357 -7.29426,5.4707 c 0,0 -7.29427,3.64713 -5.4707,7.29427 1.82356,3.64713 7.29426,20.05923 7.29426,20.05923 l -9.11783,-1.82357 -9.11783,16.4121 -23.70637,1.82357 c 0,0 -12.810216,-10.0251 -21.882799,-9.11784 -5.962354,0.59623 -1.226992,-22.61137 -7.437687,-22.19414 -6.641067,0.44613 -28.03526,-7.44282 -34.646714,-5.77783 -25.0265562,6.30256 -34.5053966,27.97197 -34.5053966,27.97197 l -10.9413994,5.4707 -18.235666,-16.41209 c 0,0 5.4707,-1.82357 -27.353499,9.11783 -32.824199,10.9414 -23.706366,16.4121 -23.706366,16.4121 l -40.118463,12.76496 5.4707,21.8828 c 0,0 -7.29427,12.76497 -7.29427,16.4121 0,3.64714 9.11783,3.64714 9.11783,3.64714 l 3.64714,14.58853 1.82356,16.4121 9.11784,16.4121 0,14.58853 -12.76497,5.4707 -26.05791,9.84482 -23.17838,6.56728 -10.94141,10.9414 10.9414,9.11783 -5.4707,5.4707 18.23567,16.4121 10.9414,12.76497 12.76496,9.11783 10.9414,7.29427 7.29427,-7.29427 7.29427,-12.76497 14.58853,0 10.941399,9.11784 7.294267,-1.82357 9.117833,-3.64713 12.764966,7.29426 -1.823567,9.11784 3.647133,9.11783 1.823567,12.76497 -1.823567,1.82356 -9.117833,0 5.4707,10.9414 -10.941399,5.4707 3.647133,12.76497 -5.4707,5.4707 c 0,0 -3.647133,9.11783 18.235666,25.52993 21.882799,16.4121 36.4713322,10.9414 36.4713322,10.9414 l 12.7649662,-3.64713 16.4120996,-7.29427 10.941399,-7.29427 14.588533,1.82357 7.294267,7.29427 10.941399,10.9414 7.294267,7.29426 10.941399,10.9414 3.647134,-1.82356 -3.647134,12.76496 10.9414,3.64714 7.29427,5.4707 9.11783,-9.11784 10.9414,12.76497 3.64713,5.4707 7.29427,1.82357 0,7.29426 18.23566,0 25.52994,-1.82356 12.76496,0 20.05924,0 c 3.80256,-8.15647 10.90406,-16.51603 19.98851,-20.61271 25.0134,2.45516 43.57789,1.93421 50.6344,-0.75063 17.61716,-6.70293 -7.86628,-26.89326 26.02612,-47.9322 l -3.64714,-16.41209 -7.29426,-9.11784 c 0,0 20.05923,-12.76496 23.70636,-20.05923 3.64714,-7.29427 12.76497,-32.8242 12.76497,-32.8242 l 5.4707,5.4707 7.29426,-9.11783 1.82357,0 3.64713,9.11783 0,14.58853 12.76497,-3.64713 0,1.82357 14.58853,-3.64714 16.4121,-5.4707 -7.29426,16.4121 -9.11784,10.9414 1.82357,5.4707 c 0,0 -1.82357,-5.4707 14.58853,1.82357 16.4121,7.29427 5.4707,23.70636 5.4707,23.70636 l 14.58854,3.64714 12.76496,-14.58853 14.58854,-12.76497 -1.82357,-9.11783 12.76496,-1.82357 c 0,0 10.9414,0 9.11784,-9.11783 -1.82357,-9.11784 -10.9414,0 -10.9414,0 l -10.9414,0 -7.29427,-5.4707 c 0,0 -11.5387,5.973 -9.11783,-18.23567 1.82357,-18.23567 3.64713,-3.64713 3.64713,-3.64713 l 5.4707,-12.76497 16.4121,-10.9414 12.76497,-12.76496 7.29426,-9.11784 21.8828,-18.23566 c 0,0 10.9414,-1.82357 12.76497,1.82356 1.82357,3.64714 -9.11783,14.58854 -9.11783,14.58854 l -10.9414,54.70699 -16.4121,18.23567 9.11783,5.4707 12.76497,1.82357 40.11846,5.4707 32.8242,18.23566 1.82357,-10.9414 40.11846,5.4707 5.4707,-10.9414 25.52994,1.82357 9.11783,9.11783 c 0,0 10.9414,-18.23566 25.52993,-18.23566 14.58853,0 21.8828,14.58853 21.8828,14.58853 l 7.29427,-3.64713 9.11783,0 c 0,0 12.76497,12.76496 20.05923,10.9414 7.29427,-1.82357 5.4707,-12.76497 5.4707,-12.76497 l 7.29427,-12.76497 -16.4121,-14.58853 c 0,0 -31.00063,-40.11847 -20.05923,-16.4121 11.93688,25.86325 -14.58854,-32.8242 -14.58854,-32.8242 l -12.76496,-3.64713 0,-18.23567 c 0,0 -1.82357,-9.11783 -3.64714,-18.23566 -1.82356,-9.11784 9.11784,-14.58854 9.11784,-14.58854 l 1.82356,-10.9414 3.64714,-14.58853 -16.4121,-5.4707 1.82356,-5.4707 3.64714,-7.29426 -20.05924,-12.76497 -9.11783,-5.4707 -7.29426,3.64713 -3.64714,3.64714 -12.76496,-12.76497 -12.76497,0 -3.64713,-18.23567 3.64713,-9.11783 -10.9414,-9.11783 -3.64713,-12.76497 1.82356,-7.29427 -1.82356,-10.9414 -1.82357,-3.64713 7.29427,1.82357 18.23566,9.11783 c 0,0 5.4707,-18.23566 1.82357,-3.64713 -3.64713,14.58853 0,-7.29427 0,-7.29427 l -9.11783,-10.9414 1.82356,-16.4121 0,-9.11783 5.4707,-12.76497 c 0,0 -5.4707,-12.76496 0,-16.4121 5.4707,-3.64713 9.11784,7.29427 9.11784,7.29427 l 7.29426,-3.64713 0,-9.11784 3.64714,0 7.29426,1.82357 9.11783,-7.29427 7.29427,3.64714 7.29427,1.82356 3.64713,0 3.64713,7.29427 10.9414,-3.64713 9.11784,-5.4707 1.82356,-9.11784 0,-7.29426 c 0,0 25.52994,-20.05924 12.76497,-3.64714 -5.59781,7.19718 -1.82357,-3.64713 -1.82357,-3.64713 l 3.64714,-5.4707 9.11783,-1.82356 5.4707,5.47069 5.4707,0 1.82357,-7.29426 7.29426,-5.4707 c 0,0 9.11783,-9.11783 3.64713,-16.4121 -5.4707,-7.29427 -23.70636,-10.9414 -23.70636,-10.9414 l -5.4707,0 0,-10.9414 1.82357,-5.4707 c 0,0 -16.4121,0 -16.4121,-14.58853 0,-14.58854 9.11783,-10.9414 9.11783,-10.9414 l -9.11783,-3.64714 -3.64714,-3.64713 -5.4707,-3.64713 -9.11783,-5.4707 c 0,0 16.4121,-25.52993 20.05923,-45.58917 3.64714,-20.05923 1.82357,-40.11846 1.82357,-40.11846 l -1.82357,-3.64714 12.76497,-5.4707 14.58853,10.9414 9.11783,5.4707 5.4707,-1.82356 3.64714,-5.4707 9.11783,0 3.64713,0 1.82357,-5.4707 -7.29427,-12.76497 -1.82356,-10.9414 12.76496,3.64714 3.64714,1.82356"
       id="path3804"
       inkscape:connector-curvature="0"
       sodipodi:nodetypes="cccccccscscsscscsscssccccccccsscscsccccscccccccccsccccccccccccsccsccsccscscscccccsccccccsccccccccsccccssscccscccscccccccccccccccccccccccccccccccscccccccccccccccccccccccscccscccccccccccccsccccccscccsccccccsccccccccccccscccscccscccscccccccccccccccccccccscccccsccccccccccccccscccccccsccccscccccscccccccccccccc" />
  </g>
</svg>
