<?xml version="1.0" encoding="UTF-8" standalone="no"?>
<!-- Created with Inkscape (http://www.inkscape.org/) -->

<svg
   xmlns:dc="http://purl.org/dc/elements/1.1/"
   xmlns:cc="http://creativecommons.org/ns#"
   xmlns:rdf="http://www.w3.org/1999/02/22-rdf-syntax-ns#"
   xmlns:svg="http://www.w3.org/2000/svg"
   xmlns="http://www.w3.org/2000/svg"
   xmlns:sodipodi="http://sodipodi.sourceforge.net/DTD/sodipodi-0.dtd"
   xmlns:inkscape="http://www.inkscape.org/namespaces/inkscape"
   id="svg2948"
   version="1.1"
   inkscape:version="0.47 r22583"
   width="800"
   height="700"
   sodipodi:docname="Westeuropa.svg">
  <metadata
     id="metadata2954">
    <rdf:RDF>
      <cc:Work
         rdf:about="">
        <dc:format>image/svg+xml</dc:format>
        <dc:type
           rdf:resource="http://purl.org/dc/dcmitype/StillImage" />
        <dc:title></dc:title>
      </cc:Work>
    </rdf:RDF>
  </metadata>
  <defs
     id="defs2952">
    <inkscape:perspective
       sodipodi:type="inkscape:persp3d"
       inkscape:vp_x="0 : 0.5 : 1"
       inkscape:vp_y="0 : 1000 : 0"
       inkscape:vp_z="1 : 0.5 : 1"
       inkscape:persp3d-origin="0.5 : 0.33333333 : 1"
       id="perspective2956" />
    <inkscape:perspective
       id="perspective2973"
       inkscape:persp3d-origin="0.5 : 0.33333333 : 1"
       inkscape:vp_z="1 : 0.5 : 1"
       inkscape:vp_y="0 : 1000 : 0"
       inkscape:vp_x="0 : 0.5 : 1"
       sodipodi:type="inkscape:persp3d" />
    <inkscape:perspective
       id="perspective3807"
       inkscape:persp3d-origin="0.5 : 0.33333333 : 1"
       inkscape:vp_z="1 : 0.5 : 1"
       inkscape:vp_y="0 : 1000 : 0"
       inkscape:vp_x="0 : 0.5 : 1"
       sodipodi:type="inkscape:persp3d" />
  </defs>
  <sodipodi:namedview
     pagecolor="#ffffff"
     bordercolor="#666666"
     borderopacity="1"
     objecttolerance="10"
     gridtolerance="10"
     guidetolerance="10"
     inkscape:pageopacity="0"
     inkscape:pageshadow="2"
     inkscape:window-width="1280"
     inkscape:window-height="949"
     id="namedview2950"
     showgrid="false"
     inkscape:zoom="0.78666667"
     inkscape:cx="519.9917"
     inkscape:cy="302.11195"
     inkscape:window-x="1280"
     inkscape:window-y="25"
     inkscape:window-maximized="1"
     inkscape:current-layer="layer1" />
  <g
     inkscape:groupmode="layer"
     id="layer1"
     inkscape:label="Ebene"
     style="opacity:1;display:inline"
     transform="translate(0,-500)">
    <path
       style="opacity:0.43421056;fill:none;stroke:#000000;stroke-width:5;stroke-linecap:butt;stroke-linejoin:miter;stroke-miterlimit:4;stroke-opacity:1;stroke-dasharray:none;display:inline"
       d="m 261.74824,925.92833 -14.38183,0 -16.17956,-7.19091 -9.88751,4.49432 -6.29206,-8.08978 -12.5841,-1.79773 -14.38183,-2.6966 -7.19092,-4.49432 -17.97729,-7.19091 -7.19092,-1.79773 -9.88751,-4.49433 -10.78637,-0.89886 -7.19092,-4.49432 -6.29204,-5.39319 -5.39319,0.89886 -8.98864,-3.59545 -10.786385,2.69659 -2.69659,4.49432 -5.39319,-1.79773 -11.68524,4.49433 -4.49432,8.98864 6.29205,3.59546 -3.59545,6.29205 1.79772,7.19092 1.79773,12.5841 -4.49432,4.49432 -3.59546,13.48297 -2.69659,17.07843 -1.79773,18.87612 -8.08978,17.97745 -11.68524,14.38175 c 0,0 -9.88751,8.0898 -11.685236,11.6853 -1.79773,3.5954 -7.19092,15.2807 -7.19092,15.2807 l 7.19092,8.0897 1.797726,8.0898 8.98865,8.0898 -2.696599,12.5841 -11.685237,15.2807 c 0,0 -7.19092,13.483 -2.69659,14.3818 4.49432,0.8989 14.381827,-4.4943 14.381827,-4.4943 l 9.887509,11.6852 16.17956,-0.8988 16.17957,5.3931 11.68523,10.7863 -2.69659,15.2807 11.685245,18.8762 22.4716,-3.5955 19.77502,-9.8875 18.87616,-1.7977 25.16821,8.9886 20.67388,5.3932 12.5841,-4.4943 8.08979,-12.5841 20.67388,-3.5955 4.49432,-13.4829 13.48297,-12.584 16.17956,-14.3819 -10.78637,-17.0784 2.69659,-15.2807 22.47162,-21.5727 17.97729,-8.9887 0.89886,-10.7863 16.17956,-2.6966 21.57275,-5.3932 10.78638,-5.3932 15.2807,-6.292 7.19091,-18.8763 0,-17.0784 6.29205,-19.77503 14.38184,-5.39319 18.87615,1.79773 11.68524,7.19092 11.68524,-0.89887 11.68524,8.08978 15.2807,5.39316 15.28069,-7.19089 13.48297,-11.68523 11.68524,-6.29206 3.59546,-6.29205 -5.39319,-9.88751 -12.5841,-2.69659 -2.69659,-10.78638 6.29205,-8.98864 -6.29205,-5.39319 -0.89887,-8.08978 7.19092,-3.59546 1.79773,-10.78637 -4.49433,-13.48297 8.98865,-3.59546 8.08978,5.39319 10.78637,-1.79773 8.98865,-9.88751 9.88751,-8.08978 7.19092,10.78637 7.19091,6.29205 8.08978,-12.5841 10.78638,-7.19092 3.59546,8.08978 8.08978,-1.79772 0.89886,-6.29206 11.68524,0 0.89887,-15.28069 9.88751,5.39318 13.48296,-6.29205 19.77503,-3.59546 8.98864,8.98865 16.17956,8.98864 14.38184,-2.69659 16.17956,7.19092 15.28069,0.89886 c 0,0 9.88751,-6.29205 13.48297,-7.19091 3.59546,-0.89887 23.37048,-2.6966 23.37048,-2.6966 l 5.39319,-9.88751 11.68524,-8.08978 -0.89887,-12.5841 -0.89886,-11.68524 11.68524,-3.59546 -3.59546,-13.48297 -3.59546,-13.48297 -5.39319,-8.08978 -9.88751,2.6966 -17.07842,-6.29206 -19.77502,0 -8.08978,10.78638 -15.2807,0.89886 -20.67389,-15.28069 -13.48296,-9.88751 -8.98865,-16.17957 0,-11.68524 -4.49432,-8.98864 8.98864,-6.29205 15.2807,-1.79773 10.78638,-8.98865 17.07842,-5.39319 8.98865,-7.19091 7.19091,6.29205 4.49433,-9.88751 -7.19092,-17.97729 -5.39319,-10.78638 2.6966,-15.28069 -8.08978,-12.58411 -4.49433,-8.98864 4.49433,-17.07843 -5.39319,-10.78637 -9.88751,-11.68524 -10.78638,-6.29205 -10.78637,-5.39319 -15.2807,6.29205 -10.78637,5.39319 -12.58411,6.29205 -0.89886,-11.68524 -11.68524,-4.49432 -10.78638,-4.49433 -15.28069,-12.5841 -17.97729,1.79773 2.69659,13.48297 12.5841,17.97729 5.39319,10.78637 -18.87615,-8.98864 -3.59546,12.5841 -6.29205,-5.39319 -2.6966,8.98865 -7.19091,-14.38183 -12.58411,0.89886 -6.29205,7.19092 -7.19092,5.39319 -14.38183,-5.39319 -17.07843,2.69659 -16.17956,5.39319 -9.88751,25.16821 -12.5841,14.38183 2.69659,15.2807 -17.07842,-5.39319 -7.19092,5.39319 9.88751,9.88751 -28.76367,4.49432 -25.1682,5.39319 -9.88751,21.57275 -17.9773,14.38183 -17.97729,7.19092 -4.49432,12.5841 -15.2807,-5.39319 -14.38183,-2.69659 -6.29206,-10.78638 -5.39318,5.39319 -2.69659,23.37048 -15.2807,5.39319 -15.2807,-11.68524 -29.66253,-0.89887 -17.97729,4.49433 8.98865,14.38183 -5.39319,11.68524 11.68524,-0.89887 19.77502,10.78638 12.5841,13.48297 9.88751,13.48296 -8.98864,8.08979 11.68524,20.67388 7.19091,9.88751 2.6966,20.67389 -11.68524,21.57274 -11.68524,36.85345 -17.07843,17.97729 z"
       id="path2991"
       sodipodi:nodetypes="cccccccccccccccccccccccccccccccsccccccscccccccccccccccccccccccccccccccccccccccccccccccccccccccccccccccccccccccscccccccccccccccccccccccccccccccccccccccccccccccccccccccccccccccccccccccccccccccccccccccccccc" />
  </g>
</svg>
